<?xml version="1.0" encoding="UTF-8" standalone="no"?>
<!-- Creator: CorelDRAW 2019 (64-Bit) -->

<svg
   xml:space="preserve"
   width="205.79451"
   height="269.07739"
   version="1.1"
   style="clip-rule:evenodd;fill-rule:evenodd;image-rendering:optimizeQuality;shape-rendering:geometricPrecision;text-rendering:geometricPrecision"
   viewBox="0 0 61.039911 79.798191"
   id="svg246"
   sodipodi:docname="bass.svg"
   inkscape:version="1.4.4 (dcaf3e7d9e, 2026-05-05)"
   xmlns:inkscape="http://www.inkscape.org/namespaces/inkscape"
   xmlns:sodipodi="http://sodipodi.sourceforge.net/DTD/sodipodi-0.dtd"
   xmlns="http://www.w3.org/2000/svg"
   xmlns:svg="http://www.w3.org/2000/svg"><sodipodi:namedview
   id="namedview248"
   pagecolor="#ffffff"
   bordercolor="#666666"
   borderopacity="1.0"
   inkscape:showpageshadow="2"
   inkscape:pageopacity="0.0"
   inkscape:pagecheckerboard="0"
   inkscape:deskcolor="#d1d1d1"
   showgrid="false"
   inkscape:zoom="0.51509865"
   inkscape:cx="500.87493"
   inkscape:cy="431.95609"
   inkscape:window-width="1862"
   inkscape:window-height="1011"
   inkscape:window-x="0"
   inkscape:window-y="0"
   inkscape:window-maximized="1"
   inkscape:current-layer="g231" />
 <defs
   id="defs128">
  <style
   type="text/css"
   id="style126">
   <![CDATA[
    .fil2 {fill:black}
    .fil6 {fill:blue}
    .fil0 {fill:white}
    .fil1 {fill:black;fill-rule:nonzero}
    .fil5 {fill:aqua;fill-rule:nonzero}
    .fil4 {fill:#336699;fill-rule:nonzero}
    .fil3 {fill:#CC3300;fill-rule:nonzero}
   ]]>
  </style>
 
   
   
   
  </defs>
 <g
   id="图层_x0020_1"
   inkscape:label="图层 1"
   inkscape:groupmode="layer"
   transform="translate(-5.7519628,-6.1624421)">
  <metadata
   id="CorelCorpID_0Corel-Layer" />
  <g
   id="g231">
    
    
    
    
    
    
    
    
    
    
    
    
    
    
    
    
    <g
   id="g171"
   transform="translate(-12.668126,-187.14277)">
     <path
   class="fil2"
   d="m 41.75,193.28 c -6.99,0 -12.6,4.04 -12.7,4.04 -5.33,3.95 -7.44,8.65 -8.27,11.86 -0.46,1.66 -0.64,3.31 -0.64,4.87 0,2.22 0.36,4.23 1.2,5.98 1.1,2.49 3.22,4.23 5.97,5.15 1.11,0.37 2.3,0.56 3.5,0.56 2.02,0 4.13,-0.56 5.89,-1.57 2.84,-1.57 4.59,-4.87 4.59,-8.46 0,-3.22 -1.66,-6.17 -4.42,-7.91 -1.93,-1.29 -3.77,-1.65 -5.33,-1.65 -1.11,0 -2.11,0.17 -2.95,0.46 -0.92,0.36 -2.47,1.28 -3.22,1.93 0.29,-1.76 1.38,-4.41 2.4,-5.89 1.01,-1.47 3.04,-3.31 4.6,-4.14 2.3,-1.28 5.25,-1.84 8.46,-1.84 9.39,0 13.98,7.54 13.98,22.99 0,8.56 -3.21,16.74 -5.97,22.17 -3.05,6.06 -7.09,11.87 -10.68,15.08 -9.57,8.74 -18.58,12.88 -18.66,12.88 0,0 -1.38,0.82 -1.02,2.2 0.29,0.92 1.1,1.1 1.66,1.1 0.09,0 0.36,-0.08 0.46,-0.08 0.09,0 10.58,-4.33 18.94,-10.86 4.7,-3.4 8.92,-7.07 12.6,-11.04 3.31,-3.58 6.17,-7.44 8.47,-11.31 4.03,-6.89 6.33,-14.06 6.33,-20.23 0,-7.63 -2.01,-13.98 -5.79,-18.48 -4.32,-5.15 -10.85,-7.81 -19.4,-7.81 z m 28.87,11.66 c 0,2.59 2.03,4.6 4.43,4.6 2.38,0 4.41,-2.01 4.41,-4.6 0,-2.57 -2.03,-4.68 -4.41,-4.68 -2.4,0 -4.43,2.11 -4.43,4.68 z m 0,22.72 c 0,2.57 2.03,4.7 4.43,4.7 2.38,0 4.41,-2.13 4.41,-4.7 0,-2.57 -2.03,-4.68 -4.41,-4.68 -2.4,0 -4.43,2.11 -4.43,4.68 z"
   id="path169" />
    </g>
    
    
    
    
    
    
    
    
    
    
    
    
    
    
    
    
    
    
    
    
    
    
    
    
    
    
    
    
    
   </g>
  
  
 </g>
</svg>
