<?xml version="1.0" encoding="UTF-8" standalone="no"?>
<!-- Creator: CorelDRAW 2019 (64-Bit) -->

<svg
   xml:space="preserve"
   width="198.42181"
   height="551.74182"
   version="1.1"
   style="clip-rule:evenodd;fill-rule:evenodd;image-rendering:optimizeQuality;shape-rendering:geometricPrecision;text-rendering:geometricPrecision"
   viewBox="0 0 58.853124 163.62578"
   id="svg246"
   sodipodi:docname="treble.svg"
   inkscape:version="1.4.4 (dcaf3e7d9e, 2026-05-05)"
   xmlns:inkscape="http://www.inkscape.org/namespaces/inkscape"
   xmlns:sodipodi="http://sodipodi.sourceforge.net/DTD/sodipodi-0.dtd"
   xmlns:xlink="http://www.w3.org/1999/xlink"
   xmlns="http://www.w3.org/2000/svg"
   xmlns:svg="http://www.w3.org/2000/svg"><sodipodi:namedview
   id="namedview248"
   pagecolor="#ffffff"
   bordercolor="#666666"
   borderopacity="1.0"
   inkscape:showpageshadow="2"
   inkscape:pageopacity="0.0"
   inkscape:pagecheckerboard="0"
   inkscape:deskcolor="#d1d1d1"
   showgrid="false"
   inkscape:zoom="0.51509865"
   inkscape:cx="339.74075"
   inkscape:cy="519.318"
   inkscape:window-width="1862"
   inkscape:window-height="1011"
   inkscape:window-x="0"
   inkscape:window-y="0"
   inkscape:window-maximized="1"
   inkscape:current-layer="g231" />
 <defs
   id="defs128">
  <style
   type="text/css"
   id="style126">
   <![CDATA[
    .fil2 {fill:black}
    .fil6 {fill:blue}
    .fil0 {fill:white}
    .fil1 {fill:black;fill-rule:nonzero}
    .fil5 {fill:aqua;fill-rule:nonzero}
    .fil4 {fill:#336699;fill-rule:nonzero}
    .fil3 {fill:#CC3300;fill-rule:nonzero}
   ]]>
  </style>
 
   
   
   
  </defs>
 <g
   id="图层_x0020_1"
   inkscape:label="图层 1"
   inkscape:groupmode="layer"
   transform="translate(-18.39,-22.105212)">
  <metadata
   id="CorelCorpID_0Corel-Layer" />
  <g
   id="g231">
    
    
    
    
    
    
    
    
    
    
    
    
    
    
    
    <g
   id="g167">
     <path
   class="fil2"
   d="m 76.65,118.95 c -1.13,-4.98 -3.56,-8.51 -4.28,-9.45 -2.93,-3.94 -6.62,-6.56 -10.93,-7.81 -2.86,-0.8 -5.62,-0.91 -7.85,-0.74 C 52.63,95.42 51.71,90.01 50.88,85 55.89,79.32 59.23,73.99 61.32,70.04 64.51,63.99 65.56,59.78 65.62,59.6 67.2,54.8 67.53,47.71 66.51,40.17 65.59,33.23 63.67,27.05 61.5,24.06 c -0.94,-1.3 -1.91,-1.98 -2.86,-1.98 -1.12,0 -3.44,1.14 -6.1,3.69 -2.11,2.01 -5.11,5.59 -7.47,11.12 -2.76,6.5 -2.96,15.22 -2.63,21.4 0.35,6.69 1.37,11.92 1.38,11.97 0.02,0.08 0.26,1.46 0.66,3.82 -0.2,0.21 -0.43,0.42 -0.66,0.65 -0.94,0.92 -2.04,1.95 -3.32,3.23 -0.79,0.79 -1.66,1.62 -2.58,2.51 -7.76,7.49 -19.53,18.83 -19.53,36.44 0,4.33 0.83,8.39 2.47,12.08 1.45,3.31 3.57,6.33 6.27,8.97 7.11,6.95 16.85,9.9 23.33,9.76 2.72,-0.08 5.15,-0.29 7.34,-0.71 1.68,8.84 2.73,15.3 2.76,20.22 0.05,5.99 -1.48,9.65 -5.06,12.2 -2.24,1.59 -4.82,2.47 -7.67,2.6 -2.38,0.11 -4.47,-0.32 -5.77,-0.69 h -0.02 c 0,0 -0.26,-0.09 -0.27,-0.26 -0.02,-0.17 0.31,-0.22 0.31,-0.22 h 0.03 c 1.77,-0.4 5.05,-1.53 7.22,-4.57 1.65,-2.32 2.45,-6.58 0.76,-10.2 -1.02,-2.2 -3.32,-4.91 -8.49,-5.33 -2.3,-0.18 -4.39,0.29 -6.23,1.4 -1.66,0.99 -3.04,2.5 -4,4.34 -2.26,4.32 -1.84,9.59 1.03,13.13 2.73,3.33 6.97,5.46 11.97,5.99 0.79,0.09 1.57,0.11 2.34,0.11 4.08,0 8.12,-1.1 11.41,-3.13 3.36,-2.37 5.32,-6.03 5.93,-11.2 0.52,-4.27 0.16,-9.72 -1.12,-17.15 -0.33,-1.92 -0.83,-4.71 -1.43,-8.16 5.28,-1.76 9.11,-5.05 12.57,-10.44 3.03,-5.28 3.89,-10.89 2.58,-16.7 z m -31.46,24.11 c -4.27,-1.12 -8.35,-3.42 -11.8,-6.65 -1.2,-1.12 -2.93,-3.12 -4.28,-6.24 -1.25,-2.91 -1.87,-6.08 -1.81,-9.37 0.06,-4.32 1.26,-8.76 3.56,-13.16 2.69,-5.13 6.89,-10.21 12.46,-15.11 1.34,-1.18 2.6,-2.36 3.78,-3.54 0.7,3.93 1.46,8.24 2.27,12.72 -3.54,1.16 -7.9,4.07 -10.76,9.27 -3.26,6.03 -3.13,11.12 -2.46,14.32 0.86,4.1 3.19,7.56 6.37,9.48 0.86,0.52 4.65,2.48 6.35,1.94 0.34,-0.1 0.59,-0.31 0.71,-0.61 0.48,-1.08 -0.47,-1.67 -1.89,-2.55 -0.56,-0.34 -1.18,-0.73 -1.84,-1.22 -3.06,-2.28 -4.4,-6.38 -3.41,-10.41 0.54,-2.2 1.71,-4.2 3.41,-5.77 1.52,-1.42 3.4,-2.42 5.59,-3.01 1.88,10.34 3.78,20.6 5.29,28.29 0.11,0.63 0.24,1.25 0.36,1.87 -4.03,0.86 -8.02,0.77 -11.9,-0.25 z m 10.42,-30.53 c 9.51,-0.43 13.43,6.41 14.25,10.85 0.43,2.34 0.43,6.42 -0.99,10.3 -1.08,2.92 -3.34,6.67 -8.06,8.56 -0.06,-0.39 -0.13,-0.79 -0.2,-1.18 -1.43,-8.07 -3.21,-18.19 -5,-28.53 z M 48.87,47.28 c 1.63,-5.27 4.15,-8.26 5.99,-9.85 1.61,-1.4 3.12,-2.06 3.96,-2.06 0.13,0 0.25,0.03 0.33,0.06 0.44,0.13 0.92,0.65 1.35,1.45 2.13,3.94 1.44,10.11 0.21,14.2 -1.5,4.97 -4.19,10.12 -12.27,18.96 -0.16,-1.02 -0.31,-1.98 -0.45,-2.89 -1.15,-7.61 -0.85,-14.31 0.88,-19.87 z"
   id="path165" />
    </g>
    
    
    
    
    
    
    
    
    
    
    
    
    
    
    
    
    
    
    
    
    
    
    
    
    
    
    
    
    
    
   <use
   x="0"
   y="0"
   xlink:href="#g167"
   id="use1" /></g>
  
  
 </g>
</svg>
